<?xml version="1.0" encoding="utf-8"?>
<!-- Generator: Adobe Illustrator 24.1.1, SVG Export Plug-In . SVG Version: 6.00 Build 0)  -->
<svg version="1.1" id="Layer_1" xmlns="http://www.w3.org/2000/svg" xmlns:xlink="http://www.w3.org/1999/xlink" x="0px" y="0px"
	 viewBox="0 0 512 512" style="enable-background:new 0 0 512 512;" xml:space="preserve">
<style type="text/css">
	.st0{fill:#333333;}
</style>
<g id="XMLID_2_">
	<path id="XMLID_10_" class="st0" d="M99.2,0C68.6,0,43,34.1,43,63.9v340.8h213h213V63.9C469,34.1,444.3,0,412.8,0H99.2z
		 M213.4,21.3h85.2v49.4h-85.2V21.3z M64.3,85.2h383.4v170.4H64.3V85.2z M110.3,291.4c24.7,0,44.3,18.7,44.3,42.6
		s-19.6,42.6-44.3,42.6S66,357.8,66,334C66,310.1,85.6,291.4,110.3,291.4z M401.7,291.4c24.7,0,44.3,18.7,44.3,42.6
		s-19.6,42.6-44.3,42.6c-24.7,0-44.3-18.7-44.3-42.6C357.4,310.1,377,291.4,401.7,291.4z M43,419.1v32.4v22.1
		c0,18.7,14.5,38.3,33.2,38.3h33.2c18.7,0,33.2-19.6,33.2-38.3v-25.6h226.6v25.6c0,18.7,14.5,38.3,33.2,38.3h33.2
		c18.7,0,33.2-19.6,33.2-38.3v-22.1v-32.4H43z"/>
</g>
</svg>
